# xmcd
#
# Track frame offsets:
#	150
#	20273
#	38736
#	50853
#	67626
#	83206
#	106534
#	120168
#	135996
#	153528
#	165448
#	180267
#	192612
#
# Disc length: 2713 seconds
#
# Revision: 1
# Processed by: cddbd v1.5.1PL2 Copyright (c) Steve Scherf et al.
# Submitted via: audiograbber 1.83.01
#
DISCID=920a970d
DTITLE=Eric Green - Hot All Day
DYEAR=2005
DGENRE=Louisiana Blues
TTITLE0=Hot All Day
TTITLE1=Super-Elastic
TTITLE2=Space Girl
TTITLE3=Yo Way
TTITLE4=Chicken Lick'n Hiway
TTITLE5=Throwdown
TTITLE6=Piece of the Pie
TTITLE7=Three Leagues Deep
TTITLE8=Mad Gris Gris
TTITLE9=Fun
TTITLE10=Figure it Out
TTITLE11=Steel Wall
TTITLE12=Thank
EXTD=
EXTT0=
EXTT1=
EXTT2=
EXTT3=
EXTT4=
EXTT5=
EXTT6=
EXTT7=
EXTT8=
EXTT9=
EXTT10=
EXTT11=
EXTT12=
PLAYORDER=
